<svg width="112" height="18" viewBox="0 0 112 18" fill="none" xmlns="http://www.w3.org/2000/svg">
<path d="M5.616 17V2.816H0.6V0.199999H13.512V2.816H8.496V17H5.616ZM18.9885 17.336C17.8045 17.336 16.7565 17.088 15.8445 16.592C14.9485 16.08 14.2445 15.368 13.7325 14.456C13.2365 13.528 12.9885 12.448 12.9885 11.216V10.928C12.9885 9.68 13.2365 8.6 13.7325 7.688C14.2285 6.776 14.9245 6.072 15.8205 5.576C16.7165 5.064 17.7485 4.808 18.9165 4.808C20.0685 4.808 21.0765 5.064 21.9405 5.576C22.8045 6.072 23.4765 6.776 23.9565 7.688C24.4365 8.6 24.6765 9.664 24.6765 10.88V11.864H15.7725C15.8045 12.792 16.1325 13.536 16.7565 14.096C17.3805 14.656 18.1485 14.936 19.0605 14.936C19.9565 14.936 20.6205 14.744 21.0525 14.36C21.4845 13.96 21.8125 13.512 22.0365 13.016L24.3165 14.192C24.0925 14.624 23.7645 15.088 23.3325 15.584C22.9165 16.064 22.3565 16.48 21.6525 16.832C20.9485 17.168 20.0605 17.336 18.9885 17.336ZM15.7965 9.776H21.8685C21.8045 8.992 21.5005 8.368 20.9565 7.904C20.4285 7.44 19.7405 7.208 18.8925 7.208C18.0125 7.208 17.3085 7.44 16.7805 7.904C16.2525 8.368 15.9245 8.992 15.7965 9.776ZM32.4058 17.336C30.8698 17.336 29.6058 17 28.6138 16.328C27.6218 15.656 27.0218 14.672 26.8138 13.376L29.3578 12.728C29.4698 13.336 29.6698 13.816 29.9578 14.168C30.2458 14.52 30.5978 14.768 31.0138 14.912C31.4458 15.056 31.9098 15.128 32.4058 15.128C33.1578 15.128 33.7178 14.992 34.0858 14.72C34.4698 14.448 34.6618 14.104 34.6618 13.688C34.6618 13.256 34.4778 12.936 34.1098 12.728C33.7578 12.52 33.2138 12.344 32.4778 12.2L31.7338 12.08C30.9178 11.92 30.1738 11.704 29.5018 11.432C28.8298 11.144 28.2858 10.76 27.8698 10.28C27.4698 9.784 27.2698 9.16 27.2698 8.408C27.2698 7.256 27.6938 6.368 28.5418 5.744C29.4058 5.12 30.5338 4.808 31.9258 4.808C33.2538 4.808 34.3498 5.104 35.2138 5.696C36.0778 6.288 36.6378 7.08 36.8938 8.072L34.3498 8.84C34.2218 8.168 33.9418 7.696 33.5098 7.424C33.0778 7.136 32.5498 6.992 31.9258 6.992C31.2858 6.992 30.7898 7.104 30.4378 7.328C30.1018 7.552 29.9338 7.872 29.9338 8.288C29.9338 8.704 30.1098 9.016 30.4618 9.224C30.8138 9.432 31.2858 9.584 31.8778 9.68L32.6218 9.824C33.5018 9.984 34.2938 10.192 34.9978 10.448C35.7178 10.704 36.2858 11.072 36.7018 11.552C37.1178 12.032 37.3258 12.68 37.3258 13.496C37.3258 14.728 36.8778 15.68 35.9818 16.352C35.1018 17.008 33.9098 17.336 32.4058 17.336ZM45.0152 17.336C43.4792 17.336 42.2152 17 41.2232 16.328C40.2312 15.656 39.6312 14.672 39.4232 13.376L41.9672 12.728C42.0792 13.336 42.2792 13.816 42.5672 14.168C42.8552 14.52 43.2072 14.768 43.6232 14.912C44.0552 15.056 44.5192 15.128 45.0152 15.128C45.7672 15.128 46.3272 14.992 46.6952 14.72C47.0792 14.448 47.2712 14.104 47.2712 13.688C47.2712 13.256 47.0872 12.936 46.7192 12.728C46.3672 12.52 45.8232 12.344 45.0872 12.2L44.3432 12.08C43.5272 11.92 42.7832 11.704 42.1112 11.432C41.4392 11.144 40.8952 10.76 40.4792 10.28C40.0792 9.784 39.8792 9.16 39.8792 8.408C39.8792 7.256 40.3032 6.368 41.1512 5.744C42.0152 5.12 43.1432 4.808 44.5352 4.808C45.8632 4.808 46.9592 5.104 47.8232 5.696C48.6872 6.288 49.2472 7.08 49.5032 8.072L46.9592 8.84C46.8312 8.168 46.5512 7.696 46.1192 7.424C45.6872 7.136 45.1592 6.992 44.5352 6.992C43.8952 6.992 43.3992 7.104 43.0472 7.328C42.7112 7.552 42.5432 7.872 42.5432 8.288C42.5432 8.704 42.7192 9.016 43.0712 9.224C43.4232 9.432 43.8952 9.584 44.4872 9.68L45.2312 9.824C46.1112 9.984 46.9032 10.192 47.6072 10.448C48.3272 10.704 48.8952 11.072 49.3112 11.552C49.7272 12.032 49.9352 12.68 49.9352 13.496C49.9352 14.728 49.4872 15.68 48.5912 16.352C47.7112 17.008 46.5192 17.336 45.0152 17.336ZM58.1526 17.336C56.9686 17.336 55.9206 17.088 55.0086 16.592C54.1126 16.08 53.4086 15.368 52.8966 14.456C52.4006 13.528 52.1526 12.448 52.1526 11.216V10.928C52.1526 9.68 52.4006 8.6 52.8966 7.688C53.3926 6.776 54.0886 6.072 54.9846 5.576C55.8806 5.064 56.9126 4.808 58.0806 4.808C59.2326 4.808 60.2406 5.064 61.1046 5.576C61.9686 6.072 62.6406 6.776 63.1206 7.688C63.6006 8.6 63.8406 9.664 63.8406 10.88V11.864H54.9366C54.9686 12.792 55.2966 13.536 55.9206 14.096C56.5446 14.656 57.3126 14.936 58.2246 14.936C59.1206 14.936 59.7846 14.744 60.2166 14.36C60.6486 13.96 60.9766 13.512 61.2006 13.016L63.4806 14.192C63.2566 14.624 62.9286 15.088 62.4966 15.584C62.0806 16.064 61.5206 16.48 60.8166 16.832C60.1126 17.168 59.2246 17.336 58.1526 17.336ZM54.9606 9.776H61.0326C60.9686 8.992 60.6646 8.368 60.1206 7.904C59.5926 7.44 58.9046 7.208 58.0566 7.208C57.1766 7.208 56.4726 7.44 55.9446 7.904C55.4166 8.368 55.0886 8.992 54.9606 9.776ZM66.6739 17V5.144H69.3859V6.512H69.7939C69.9699 6.016 70.2659 5.656 70.6819 5.432C71.0979 5.208 71.5939 5.096 72.1699 5.096H73.6099V7.544H72.1219C71.3219 7.544 70.6739 7.76 70.1779 8.192C69.6819 8.608 69.4339 9.256 69.4339 10.136V17H66.6739ZM79.4162 17.336C78.5842 17.336 77.8322 17.192 77.1602 16.904C76.4882 16.6 75.9522 16.168 75.5522 15.608C75.1682 15.048 74.9762 14.36 74.9762 13.544C74.9762 12.744 75.1682 12.072 75.5522 11.528C75.9522 10.984 76.4962 10.576 77.1842 10.304C77.8722 10.016 78.6562 9.872 79.5362 9.872H82.9682V9.152C82.9682 8.528 82.7762 8.024 82.3922 7.64C82.0082 7.24 81.4082 7.04 80.5922 7.04C79.7922 7.04 79.1842 7.232 78.7682 7.616C78.3682 7.984 78.1042 8.464 77.9762 9.056L75.4322 8.216C75.6242 7.592 75.9282 7.024 76.3442 6.512C76.7762 6 77.3442 5.592 78.0482 5.288C78.7522 4.968 79.6162 4.808 80.6402 4.808C82.1922 4.808 83.4082 5.2 84.2882 5.984C85.1842 6.752 85.6322 7.872 85.6322 9.344V14C85.6322 14.48 85.8562 14.72 86.3042 14.72H87.3122V17H85.3682C84.7922 17 84.3202 16.856 83.9522 16.568C83.5842 16.28 83.4002 15.888 83.4002 15.392V15.344H82.9922C82.8962 15.568 82.7282 15.84 82.4882 16.16C82.2482 16.48 81.8802 16.76 81.3842 17C80.9042 17.224 80.2482 17.336 79.4162 17.336ZM79.8722 15.08C80.7842 15.08 81.5282 14.824 82.1042 14.312C82.6802 13.784 82.9682 13.08 82.9682 12.2V11.96H79.7042C79.1122 11.96 78.6322 12.088 78.2642 12.344C77.8962 12.6 77.7122 12.976 77.7122 13.472C77.7122 13.952 77.9042 14.344 78.2882 14.648C78.6722 14.936 79.2002 15.08 79.8722 15.08ZM94.8819 17.336C93.7299 17.336 92.6899 17.096 91.7619 16.616C90.8339 16.136 90.0979 15.44 89.5539 14.528C89.0259 13.616 88.7619 12.52 88.7619 11.24V10.904C88.7619 9.624 89.0259 8.528 89.5539 7.616C90.0979 6.704 90.8339 6.008 91.7619 5.528C92.6899 5.048 93.7299 4.808 94.8819 4.808C96.0179 4.808 96.9859 5.008 97.7859 5.408C98.6019 5.808 99.2579 6.36 99.7539 7.064C100.25 7.752 100.57 8.528 100.714 9.392L98.0499 9.944C97.9859 9.448 97.8339 9 97.5939 8.6C97.3539 8.184 97.0099 7.856 96.5619 7.616C96.1299 7.376 95.5939 7.256 94.9539 7.256C94.2979 7.256 93.7059 7.4 93.1779 7.688C92.6659 7.96 92.2579 8.376 91.9539 8.936C91.6659 9.496 91.5219 10.168 91.5219 10.952V11.192C91.5219 11.976 91.6659 12.648 91.9539 13.208C92.2579 13.752 92.6659 14.168 93.1779 14.456C93.7059 14.744 94.2979 14.888 94.9539 14.888C95.9299 14.888 96.6659 14.64 97.1619 14.144C97.6739 13.632 97.9939 12.976 98.1219 12.176L100.786 12.8C100.594 13.632 100.25 14.392 99.7539 15.08C99.2579 15.768 98.6019 16.32 97.7859 16.736C96.9859 17.136 96.0179 17.336 94.8819 17.336ZM107.584 17C106.816 17 106.2 16.776 105.736 16.328C105.288 15.864 105.064 15.24 105.064 14.456V7.424H101.968V5.144H105.064V1.328H107.824V5.144H111.232V7.424H107.824V14C107.824 14.48 108.048 14.72 108.496 14.72H110.872V17H107.584Z" fill="#DDDDDD"/>
</svg>
